<svg xmlns="http://www.w3.org/2000/svg" viewBox="0 0 300 310" width="300" height="310">
  <defs>
    <!-- Scale colors by column distance from center -->
    <clipPath id="canopyClip">
      <path d="M 14,100 C 14,78 26,54 52,36 Q 150,8 248,36 C 274,54 286,78 286,100
               L 252,100 C 252,82 242,62 222,48 Q 150,22 78,48 C 58,62 48,82 48,100 Z"/>
    </clipPath>
  </defs>

  <!-- ═══ ARCH FRAME ═══ -->
  <!-- Full arch ring (dark charcoal) drawn first -->
  <path d="M 14,180 C 14,138 26,90 52,58 Q 150,10 248,58 C 274,90 286,138 286,180
           L 252,180 C 252,142 242,98 222,70 Q 150,24 78,70 C 58,98 48,142 48,180 Z"
        fill="#252525" stroke="#111" stroke-width="1.5"/>

  <!-- ═══ DRAGON SCALE CANOPY ═══ -->
  <!-- Draw top rows first, bottom rows on top (shingle order) -->
  <!-- Each scale is a rounded rect. Colors brighten toward center (x=150) -->

  <g clip-path="url(#canopyClip)">

    <!-- ROW 7 — very top, y=18 (drawn first, will be mostly covered) -->
    <rect x="107" y="18" width="22" height="16" rx="5" fill="#b83015" stroke="#6a1008" stroke-width="1.2"/>
    <rect x="129" y="18" width="22" height="16" rx="5" fill="#d04020" stroke="#6a1008" stroke-width="1.2"/>
    <rect x="151" y="18" width="22" height="16" rx="5" fill="#d04020" stroke="#6a1008" stroke-width="1.2"/>
    <rect x="173" y="18" width="22" height="16" rx="5" fill="#b83015" stroke="#6a1008" stroke-width="1.2"/>

    <!-- ROW 6 — y=28 (offset) -->
    <rect x="85"  y="28" width="22" height="16" rx="5" fill="#a02810" stroke="#6a1008" stroke-width="1.2"/>
    <rect x="107" y="28" width="22" height="16" rx="5" fill="#c03818" stroke="#6a1008" stroke-width="1.2"/>
    <rect x="129" y="28" width="22" height="16" rx="5" fill="#dd4e22" stroke="#6a1008" stroke-width="1.2"/>
    <rect x="151" y="28" width="22" height="16" rx="5" fill="#dd4e22" stroke="#6a1008" stroke-width="1.2"/>
    <rect x="173" y="28" width="22" height="16" rx="5" fill="#c03818" stroke="#6a1008" stroke-width="1.2"/>
    <rect x="195" y="28" width="22" height="16" rx="5" fill="#a02810" stroke="#6a1008" stroke-width="1.2"/>

    <!-- ROW 5 — y=38 -->
    <rect x="63"  y="38" width="22" height="16" rx="5" fill="#922010" stroke="#6a1008" stroke-width="1.2"/>
    <rect x="85"  y="38" width="22" height="16" rx="5" fill="#b03015" stroke="#6a1008" stroke-width="1.2"/>
    <rect x="107" y="38" width="22" height="16" rx="5" fill="#cc421c" stroke="#6a1008" stroke-width="1.2"/>
    <rect x="129" y="38" width="22" height="16" rx="5" fill="#e65a26" stroke="#6a1008" stroke-width="1.2"/>
    <rect x="151" y="38" width="22" height="16" rx="5" fill="#e65a26" stroke="#6a1008" stroke-width="1.2"/>
    <rect x="173" y="38" width="22" height="16" rx="5" fill="#cc421c" stroke="#6a1008" stroke-width="1.2"/>
    <rect x="195" y="38" width="22" height="16" rx="5" fill="#b03015" stroke="#6a1008" stroke-width="1.2"/>
    <rect x="217" y="38" width="22" height="16" rx="5" fill="#922010" stroke="#6a1008" stroke-width="1.2"/>

    <!-- ROW 4 — y=48 (offset) -->
    <rect x="41"  y="48" width="22" height="16" rx="5" fill="#882010" stroke="#6a1008" stroke-width="1.2"/>
    <rect x="63"  y="48" width="22" height="16" rx="5" fill="#a82c14" stroke="#6a1008" stroke-width="1.2"/>
    <rect x="85"  y="48" width="22" height="16" rx="5" fill="#c43c1e" stroke="#6a1008" stroke-width="1.2"/>
    <rect x="107" y="48" width="22" height="16" rx="5" fill="#da5228" stroke="#6a1008" stroke-width="1.2"/>
    <rect x="129" y="48" width="22" height="16" rx="5" fill="#ee6430" stroke="#6a1008" stroke-width="1.2"/>
    <rect x="151" y="48" width="22" height="16" rx="5" fill="#ee6430" stroke="#6a1008" stroke-width="1.2"/>
    <rect x="173" y="48" width="22" height="16" rx="5" fill="#da5228" stroke="#6a1008" stroke-width="1.2"/>
    <rect x="195" y="48" width="22" height="16" rx="5" fill="#c43c1e" stroke="#6a1008" stroke-width="1.2"/>
    <rect x="217" y="48" width="22" height="16" rx="5" fill="#a82c14" stroke="#6a1008" stroke-width="1.2"/>
    <rect x="239" y="48" width="22" height="16" rx="5" fill="#882010" stroke="#6a1008" stroke-width="1.2"/>

    <!-- ROW 3 — y=58 -->
    <rect x="30"  y="58" width="22" height="16" rx="5" fill="#7a1c0e" stroke="#6a1008" stroke-width="1.2"/>
    <rect x="52"  y="58" width="22" height="16" rx="5" fill="#9e2812" stroke="#6a1008" stroke-width="1.2"/>
    <rect x="74"  y="58" width="22" height="16" rx="5" fill="#bc381a" stroke="#6a1008" stroke-width="1.2"/>
    <rect x="96"  y="58" width="22" height="16" rx="5" fill="#d64e24" stroke="#6a1008" stroke-width="1.2"/>
    <rect x="118" y="58" width="22" height="16" rx="5" fill="#ec622e" stroke="#6a1008" stroke-width="1.2"/>
    <rect x="140" y="58" width="22" height="16" rx="5" fill="#f87038" stroke="#6a1008" stroke-width="1.2"/>
    <rect x="162" y="58" width="22" height="16" rx="5" fill="#ec622e" stroke="#6a1008" stroke-width="1.2"/>
    <rect x="184" y="58" width="22" height="16" rx="5" fill="#d64e24" stroke="#6a1008" stroke-width="1.2"/>
    <rect x="206" y="58" width="22" height="16" rx="5" fill="#bc381a" stroke="#6a1008" stroke-width="1.2"/>
    <rect x="228" y="58" width="22" height="16" rx="5" fill="#9e2812" stroke="#6a1008" stroke-width="1.2"/>
    <rect x="250" y="58" width="22" height="16" rx="5" fill="#7a1c0e" stroke="#6a1008" stroke-width="1.2"/>

    <!-- ROW 2 — y=68 (offset) -->
    <rect x="19"  y="68" width="22" height="16" rx="5" fill="#701808" stroke="#6a1008" stroke-width="1.2"/>
    <rect x="41"  y="68" width="22" height="16" rx="5" fill="#922010" stroke="#6a1008" stroke-width="1.2"/>
    <rect x="63"  y="68" width="22" height="16" rx="5" fill="#b03018" stroke="#6a1008" stroke-width="1.2"/>
    <rect x="85"  y="68" width="22" height="16" rx="5" fill="#cc4420" stroke="#6a1008" stroke-width="1.2"/>
    <rect x="107" y="68" width="22" height="16" rx="5" fill="#e05a2a" stroke="#6a1008" stroke-width="1.2"/>
    <rect x="129" y="68" width="22" height="16" rx="5" fill="#f26c34" stroke="#6a1008" stroke-width="1.2"/>
    <rect x="151" y="68" width="22" height="16" rx="5" fill="#f26c34" stroke="#6a1008" stroke-width="1.2"/>
    <rect x="173" y="68" width="22" height="16" rx="5" fill="#e05a2a" stroke="#6a1008" stroke-width="1.2"/>
    <rect x="195" y="68" width="22" height="16" rx="5" fill="#cc4420" stroke="#6a1008" stroke-width="1.2"/>
    <rect x="217" y="68" width="22" height="16" rx="5" fill="#b03018" stroke="#6a1008" stroke-width="1.2"/>
    <rect x="239" y="68" width="22" height="16" rx="5" fill="#922010" stroke="#6a1008" stroke-width="1.2"/>
    <rect x="261" y="68" width="22" height="16" rx="5" fill="#701808" stroke="#6a1008" stroke-width="1.2"/>

    <!-- ROW 1 — y=78 -->
    <rect x="19"  y="78" width="22" height="16" rx="5" fill="#6a1808" stroke="#6a1008" stroke-width="1.2"/>
    <rect x="41"  y="78" width="22" height="16" rx="5" fill="#8a2010" stroke="#6a1008" stroke-width="1.2"/>
    <rect x="63"  y="78" width="22" height="16" rx="5" fill="#a83018" stroke="#6a1008" stroke-width="1.2"/>
    <rect x="85"  y="78" width="22" height="16" rx="5" fill="#c44020" stroke="#6a1008" stroke-width="1.2"/>
    <rect x="107" y="78" width="22" height="16" rx="5" fill="#dc5628" stroke="#6a1008" stroke-width="1.2"/>
    <rect x="129" y="78" width="22" height="16" rx="5" fill="#ee6832" stroke="#6a1008" stroke-width="1.2"/>
    <rect x="151" y="78" width="22" height="16" rx="5" fill="#ee6832" stroke="#6a1008" stroke-width="1.2"/>
    <rect x="173" y="78" width="22" height="16" rx="5" fill="#dc5628" stroke="#6a1008" stroke-width="1.2"/>
    <rect x="195" y="78" width="22" height="16" rx="5" fill="#c44020" stroke="#6a1008" stroke-width="1.2"/>
    <rect x="217" y="78" width="22" height="16" rx="5" fill="#a83018" stroke="#6a1008" stroke-width="1.2"/>
    <rect x="239" y="78" width="22" height="16" rx="5" fill="#8a2010" stroke="#6a1008" stroke-width="1.2"/>
    <rect x="261" y="78" width="22" height="16" rx="5" fill="#6a1808" stroke="#6a1008" stroke-width="1.2"/>

    <!-- ROW 0 — y=88 (offset, bottom-most, drawn last so visible on top) -->
    <rect x="8"   y="88" width="22" height="16" rx="5" fill="#601408" stroke="#6a1008" stroke-width="1.2"/>
    <rect x="30"  y="88" width="22" height="16" rx="5" fill="#7e1c0c" stroke="#6a1008" stroke-width="1.2"/>
    <rect x="52"  y="88" width="22" height="16" rx="5" fill="#9e2c16" stroke="#6a1008" stroke-width="1.2"/>
    <rect x="74"  y="88" width="22" height="16" rx="5" fill="#ba3e20" stroke="#6a1008" stroke-width="1.2"/>
    <rect x="96"  y="88" width="22" height="16" rx="5" fill="#d45228" stroke="#6a1008" stroke-width="1.2"/>
    <rect x="118" y="88" width="22" height="16" rx="5" fill="#e86432" stroke="#6a1008" stroke-width="1.2"/>
    <rect x="140" y="88" width="22" height="16" rx="5" fill="#f47038" stroke="#6a1008" stroke-width="1.2"/>
    <rect x="162" y="88" width="22" height="16" rx="5" fill="#e86432" stroke="#6a1008" stroke-width="1.2"/>
    <rect x="184" y="88" width="22" height="16" rx="5" fill="#d45228" stroke="#6a1008" stroke-width="1.2"/>
    <rect x="206" y="88" width="22" height="16" rx="5" fill="#ba3e20" stroke="#6a1008" stroke-width="1.2"/>
    <rect x="228" y="88" width="22" height="16" rx="5" fill="#9e2c16" stroke="#6a1008" stroke-width="1.2"/>
    <rect x="250" y="88" width="22" height="16" rx="5" fill="#7e1c0c" stroke="#6a1008" stroke-width="1.2"/>
    <rect x="272" y="88" width="22" height="16" rx="5" fill="#601408" stroke="#6a1008" stroke-width="1.2"/>

  </g>

  <!-- Re-draw arch frame outline on top of scales to clean up edges -->
  <path d="M 14,180 C 14,138 26,90 52,58 Q 150,10 248,58 C 274,90 286,138 286,180
           L 252,180 C 252,142 242,98 222,70 Q 150,24 78,70 C 58,98 48,142 48,180 Z"
        fill="none" stroke="#252525" stroke-width="3"/>

  <!-- Arch frame (re-draw solid legs BELOW canopy so scales sit on top cleanly) -->
  <!-- Left leg fill (below canopy line ~y=100) -->
  <path d="M 14,180 C 14,155 18,130 28,108 L 52,108 C 45,128 42,154 42,180 Z" fill="#252525"/>
  <path d="M 48,180 C 48,156 52,130 60,108 L 84,108 C 76,128 72,155 72,180 Z" fill="#252525"/>
  <!-- Right leg fill -->
  <path d="M 286,180 C 286,155 282,130 272,108 L 248,108 C 255,128 258,154 258,180 Z" fill="#252525"/>
  <path d="M 252,180 C 252,156 248,130 240,108 L 216,108 C 224,128 228,155 228,180 Z" fill="#252525"/>

  <!-- Pillar feet -->
  <rect x="10"  y="176" width="36" height="10" rx="4" fill="#1a1a1a"/>
  <rect x="254" y="176" width="36" height="10" rx="4" fill="#1a1a1a"/>

  <!-- ═══ TEXT ═══ -->
  <text x="150" y="228"
        text-anchor="middle"
        font-family="'Arial Black', 'Arial Bold', Arial, sans-serif"
        font-size="52" font-weight="900" letter-spacing="2"
        fill="#1a1a1a">DRAGON</text>

  <text x="150" y="256"
        text-anchor="middle"
        font-family="Arial, sans-serif"
        font-size="14" font-weight="700" letter-spacing="5"
        fill="#1a1a1a">RECREATION SERVICES</text>

  <!-- Red dot accents flanking text -->
  <circle cx="38" cy="250" r="3" fill="#c0392b"/>
  <circle cx="262" cy="250" r="3" fill="#c0392b"/>
</svg>
